<svg xmlns="http://www.w3.org/2000/svg" width="75" height="75" viewBox="0 0 75 75">
  <g id="Group_52" data-name="Group 52" transform="translate(-425 -1431)">
    <path id="Ellipse_5" data-name="Ellipse 5" d="M37.5,2A35.51,35.51,0,0,0,23.682,70.211,35.51,35.51,0,0,0,51.318,4.789,35.276,35.276,0,0,0,37.5,2m0-2A37.5,37.5,0,1,1,0,37.5,37.5,37.5,0,0,1,37.5,0Z" transform="translate(425 1431)" fill="#fff"/>
    <g id="Group_47" data-name="Group 47" transform="translate(7.227 157.843)">
      <path id="Ellipse_21" data-name="Ellipse 21" d="M15.9,3A12.9,12.9,0,0,0,6.78,25.03,12.9,12.9,0,0,0,25.03,6.78,12.82,12.82,0,0,0,15.9,3m0-3A15.9,15.9,0,1,1,0,15.9,15.9,15.9,0,0,1,15.9,0Z" transform="translate(445.236 1288)" fill="#fff"/>
      <path id="Line_253" data-name="Line 253" d="M0,17.7a1.5,1.5,0,0,1-1.028-.408,1.5,1.5,0,0,1-.064-2.12l15.248-16.2a1.5,1.5,0,0,1,2.12-.064,1.5,1.5,0,0,1,.064,2.12L1.092,17.229A1.5,1.5,0,0,1,0,17.7Z" transform="translate(434.5 1316.113)" fill="#fff"/>
    </g>
  </g>
</svg>
